<!--?xml version="1.0" encoding="utf-8"?-->
<!-- Generator: Adobe Illustrator 28.0.0, SVG Export Plug-In . SVG Version: 6.00 Build 0)  -->
<svg version="1.1" id="Layer_1" xmlns="http://www.w3.org/2000/svg" xmlns:xlink="http://www.w3.org/1999/xlink" x="0px" y="0px" viewBox="0 0 487.4 121.9" style="" xml:space="preserve">
<style type="text/css">
	.st0{fill:none;stroke:#006B12;stroke-width:2;}
</style>
<g>
	<path class="st0 DCdYHmVx_0" d="M79.1,101.1c-27.9,0-38.8-20.7-38.8-38.8c0-18.9,11.6-39.9,34.8-39.9c24.8,0,17,15.4,24.7,22.6l-2.1,0.1
		c-5.7,0-20.2-1.5-21.7-18.2c-10.7,0.9-15.9,19.7-15.9,35c0,9.1,1.7,31.1,19.9,32l2-0.2V75.2c0-2.4-0.3-10.9-4-16.3
		c8.6,2.2,17.2,2.8,23,2.8c1.9,0,2.6,1.3,2.6,2.6c0,1.1-0.6,2.3-1.7,3.5c-0.4,0.4-0.6,0.8-0.6,2.2v31.2H79.1z"></path>
	<path class="st0 DCdYHmVx_1" d="M105.8,72.2c0-13.5,7.4-29.1,25.4-29.1c8.2,0,15.6,0.8,19.4,6.9c2.6,5.3,1.5,5.3,3.9,11.7
		c0.6,1.6,1.6,2.9,2.9,4.1l-2,0.2c-3.7,0-10.7-0.8-16.5-6c3.6,6.5,9.3,9.8,17.3,10.1l0.1,2.2c0,14.7-8.5,28.9-25.1,28.9
		C113,101.1,105.8,85.1,105.8,72.2z M136.7,83.2V57.5c-1.8-2.5-2.9-5.8-3.1-9.9l-0.8-0.3c-5.3,3.2-7.2,8.3-7.2,13.5v30.5
		c0,2.5,1.3,4.3,4,5.4C134.8,93.5,136.7,88.4,136.7,83.2z"></path>
	<path class="st0 DCdYHmVx_2" d="M225.3,101.1c-27.9,0-38.8-20.7-38.8-38.8c0-18.9,11.6-39.9,34.8-39.9c24.8,0,17,15.4,24.7,22.6l-2.1,0.1
		c-5.7,0-20.2-1.5-21.7-18.2c-10.7,0.9-15.9,19.7-15.9,35c0,9.1,1.7,31.1,19.9,32l2-0.2V75.2c0-2.4-0.3-10.9-4-16.3
		c8.6,2.2,17.2,2.8,23,2.8c1.9,0,2.6,1.3,2.6,2.6c0,1.1-0.6,2.3-1.7,3.5c-0.4,0.4-0.6,0.8-0.6,2.2v31.2H225.3z"></path>
	<path class="st0 DCdYHmVx_3" d="M255.4,101.1c-1.9,0-2.6-1.3-2.6-2.6c0-1.2,0.6-2.3,1.7-3.5c0.5-0.4,0.6-0.9,0.6-2.3V70.2
		c9.6-1.5,15.2-6.4,17.5-14.9c-3,5.4-10.8,10.6-19.2,10.6l-2.7-0.2c2.9-2.7,2.9-6.4,5.4-13.1c1.9-5.2,6.4-9.4,18.4-9.4
		c0.1,1.4,0.1,2.7,0.1,4.1c8.1-3.4,11.7-9.2,22.7-17c3.1-2.2,6.6-3.3,10.4-3.6c6.4,0,17.2,4,17.2,15c0,1.2-0.2,2.6-0.5,4
		c-5.5-3.6-11.2-5.2-16.6-5.2c-8.5,0-16.7,3.4-20.8,6.4c-10.4,7.4-12.5,20-12.5,38.1v11.9c0,2.7-2.1,4.4-4.4,4.4H255.4z M280.2,72.7
		c0-13.2,7.5-27.3,24.9-27.3c9.7,0,23.2,6.4,23.2,20.1c0,4.3-1.2,8.4-4.4,11c-6.6,5-14.6,3.4-24.4,6.1l0.9,8.9
		c0.5,2.3,1.7,4,3.9,5.1c2.1,1.1,3.8,1.7,5.1,1.9c0-6.9,2.2-11.9,6.5-15.2c5.7-4.1,11.9-5,15.3-5l2,0.1c-4.5,4.3-3.1,8.5-6.5,15.6
		c-2.2,4.6-8.9,7-20.9,7C287.6,101.1,280.2,85.3,280.2,72.7z M311.9,61c0-4.8-1.3-9.8-5.2-11.4c-5.2,3.3-7.1,8.5-7.1,13.6v15h0.1
		C308.3,78.2,311.9,68.6,311.9,61z"></path>
	<path class="st0 DCdYHmVx_4" d="M333.9,72.2c0-13.5,7.4-29.1,25.4-29.1c11.4,0,23.3,7.2,23.3,20.1c0,16.7-16.7,13.9-28.9,17.1v11.1
		c0,5,7.1,6.9,9.2,7.1c0-17.3,15.5-20.2,22.1-20.2l1.8,0.1c-6.9,6.7-1.1,15.6-12.7,20.8c-3.1,1.3-8,2-14.7,2
		C341.1,101.1,333.9,85.1,333.9,72.2z M366,58.5c0-4.7-1.3-9.7-5.2-11.2c-5.4,3.3-7.3,8.5-7.3,13.5v15h0.1
		C363,75.9,366,65.2,366,58.5z"></path>
	<path class="st0 DCdYHmVx_5" d="M425.3,101.1c-2.6,0-4.1-2-4.4-4.1V65.2c0-4-0.7-9.6-4.7-9.6c-5.1,0.6-7,5.2-7.5,11.2
		c-0.3,3.1-0.4,6.2-0.4,9.3v20.5c0,2.3-2,4.4-4.4,4.4h-14.9c-1.9,0-2.6-1.3-2.6-2.7c0-1.1,0.6-2.3,1.7-3.4c0.5-0.2,0.6-0.6,0.6-2.3
		V70.2c9.3-1.3,15.2-6.3,17.5-14.9c-3,5.3-10.7,10.6-19.1,10.6l-2.7-0.2c4-3.7,2.8-8.7,6.5-15.5c2.3-4.2,7.5-7.1,17.3-7.1v10.7
		c3.4-3,6.2-6.5,11.5-9.1c2.4-1.1,4.8-1.7,7-1.7c7.7,0.5,11.3,5.2,12.6,11.4c0.6,3.2,1,6.3,1,9.3v29.7c0,1,0.2,1.5,0.6,1.6
		c1.1,1.2,1.6,2.3,1.6,3.4c0,1.3-0.7,2.7-2.5,2.7H425.3z"></path>
</g>
<style data-made-with="vivus-instant">.DCdYHmVx_0{stroke-dasharray:400 402;stroke-dashoffset:401;animation:DCdYHmVx_draw 2000ms linear 0ms forwards;}.DCdYHmVx_1{stroke-dasharray:319 321;stroke-dashoffset:320;animation:DCdYHmVx_draw 2000ms linear 200ms forwards;}.DCdYHmVx_2{stroke-dasharray:400 402;stroke-dashoffset:401;animation:DCdYHmVx_draw 2000ms linear 400ms forwards;}.DCdYHmVx_3{stroke-dasharray:629 631;stroke-dashoffset:630;animation:DCdYHmVx_draw 2000ms linear 600ms forwards;}.DCdYHmVx_4{stroke-dasharray:327 329;stroke-dashoffset:328;animation:DCdYHmVx_draw 2000ms linear 800ms forwards;}.DCdYHmVx_5{stroke-dasharray:352 354;stroke-dashoffset:353;animation:DCdYHmVx_draw 2000ms linear 1000ms forwards;}@keyframes DCdYHmVx_draw{100%{stroke-dashoffset:0;}}@keyframes DCdYHmVx_fade{0%{stroke-opacity:1;}94.44444444444444%{stroke-opacity:1;}100%{stroke-opacity:0;}}</style></svg>
